<svg viewBox="0 0 880 260" width="100%" style="height:auto" xmlns="http://www.w3.org/2000/svg" role="img" aria-label="Plan silhouette of the P1000."><rect width="880" height="260" fill="#0a0a0c"/><path d="M554.7 129.3 L552.8 115.3 L550.9 109.4 L549 105 L547 101.4 L545.1 98.3 L543.2 95.6 L541.3 93.2 L539.4 91.1 L537.5 89.1 L535.6 87.3 L533.7 85.7 L531.8 84.2 L529.8 82.8 L527.9 81.6 L526 80.4 L524.1 79.3 L522.2 78.4 L520.3 77.5 L518.4 76.7 L516.5 76 L514.6 75.4 L512.6 74.8 L510.7 74.3 L508.8 73.9 L506.9 73.5 L505 73.2 L503.1 73 L501.2 72.9 L499.3 72.8 L497.3 72.7 L495.4 72.7 L493.5 72.7 L491.6 72.7 L489.7 72.7 L487.8 72.7 L485.9 72.7 L484 72.7 L482.1 72.7 L480.1 72.7 L478.2 72.7 L476.3 72.7 L474.4 72.7 L472.5 72.7 L470.6 72.7 L468.7 72.7 L466.8 72.7 L464.9 72.7 L462.9 72.7 L461 72.7 L459.1 72.7 L457.2 72.7 L455.3 72.7 L453.4 72.7 L451.5 72.7 L449.6 72.7 L447.6 72.7 L445.7 72.7 L443.8 72.7 L441.9 72.7 L440 72.7 L438.1 72.7 L436.2 72.7 L434.3 72.7 L432.4 72.7 L430.4 72.7 L428.5 72.7 L426.6 72.7 L424.7 72.7 L422.8 72.7 L420.9 72.7 L419 72.7 L417.1 72.7 L415.1 72.7 L413.2 72.7 L411.3 72.7 L409.4 72.7 L407.5 72.7 L405.6 72.7 L403.7 72.7 L401.8 72.7 L399.9 72.7 L397.9 72.7 L396 72.7 L394.1 72.7 L392.2 72.7 L390.3 72.7 L388.4 72.7 L386.5 72.7 L384.6 72.7 L382.7 72.7 L380.7 72.8 L378.8 72.9 L376.9 73 L375 73.2 L373.1 73.5 L371.2 73.9 L369.3 74.3 L367.4 74.8 L365.4 75.4 L363.5 76 L361.6 76.7 L359.7 77.5 L357.8 78.4 L355.9 79.3 L354 80.4 L352.1 81.6 L350.2 82.8 L348.2 84.2 L346.3 85.7 L344.4 87.3 L342.5 89.1 L340.6 91.1 L338.7 93.2 L336.8 95.6 L334.9 98.3 L333 101.4 L331 105 L329.1 109.4 L327.2 115.3 L325.3 129.3 L325.3 130.7 L327.2 144.7 L329.1 150.6 L331 155 L333 158.6 L334.9 161.7 L336.8 164.4 L338.7 166.8 L340.6 168.9 L342.5 170.9 L344.4 172.7 L346.3 174.3 L348.2 175.8 L350.2 177.2 L352.1 178.4 L354 179.6 L355.9 180.7 L357.8 181.6 L359.7 182.5 L361.6 183.3 L363.5 184 L365.4 184.6 L367.4 185.2 L369.3 185.7 L371.2 186.1 L373.1 186.5 L375 186.8 L376.9 187 L378.8 187.1 L380.7 187.2 L382.7 187.3 L384.6 187.3 L386.5 187.3 L388.4 187.3 L390.3 187.3 L392.2 187.3 L394.1 187.3 L396 187.3 L397.9 187.3 L399.9 187.3 L401.8 187.3 L403.7 187.3 L405.6 187.3 L407.5 187.3 L409.4 187.3 L411.3 187.3 L413.2 187.3 L415.1 187.3 L417.1 187.3 L419 187.3 L420.9 187.3 L422.8 187.3 L424.7 187.3 L426.6 187.3 L428.5 187.3 L430.4 187.3 L432.4 187.3 L434.3 187.3 L436.2 187.3 L438.1 187.3 L440 187.3 L441.9 187.3 L443.8 187.3 L445.7 187.3 L447.6 187.3 L449.6 187.3 L451.5 187.3 L453.4 187.3 L455.3 187.3 L457.2 187.3 L459.1 187.3 L461 187.3 L462.9 187.3 L464.9 187.3 L466.8 187.3 L468.7 187.3 L470.6 187.3 L472.5 187.3 L474.4 187.3 L476.3 187.3 L478.2 187.3 L480.1 187.3 L482.1 187.3 L484 187.3 L485.9 187.3 L487.8 187.3 L489.7 187.3 L491.6 187.3 L493.5 187.3 L495.4 187.3 L497.3 187.3 L499.3 187.2 L501.2 187.1 L503.1 187 L505 186.8 L506.9 186.5 L508.8 186.1 L510.7 185.7 L512.6 185.2 L514.6 184.6 L516.5 184 L518.4 183.3 L520.3 182.5 L522.2 181.6 L524.1 180.7 L526 179.6 L527.9 178.4 L529.8 177.2 L531.8 175.8 L533.7 174.3 L535.6 172.7 L537.5 170.9 L539.4 168.9 L541.3 166.8 L543.2 164.4 L545.1 161.7 L547 158.6 L549 155 L550.9 150.6 L552.8 144.7 L554.7 130.7 Z" fill="#111114" fill-opacity=".55" stroke="#c9c3b6" stroke-width="1.4"/><text x="14" y="248" fill="#74747f" font-size="10.5" font-family="ui-monospace,SFMono-Regular,Menlo,monospace">P-1000 · 238 m × 118.8 m · 2,200 thousand m³ · conceptual reference vehicle</text></svg>