<svg viewBox="0 0 880 260" width="100%" style="height:auto" xmlns="http://www.w3.org/2000/svg" role="img" aria-label="Plan silhouette of the P100."><rect width="880" height="260" fill="#0a0a0c"/><path d="M554.7 129.3 L552.8 115.2 L550.9 109.3 L549 104.9 L547 101.2 L545.1 98.1 L543.2 95.4 L541.3 93 L539.4 90.8 L537.5 88.8 L535.6 87 L533.7 85.4 L531.8 83.9 L529.8 82.5 L527.9 81.2 L526 80.1 L524.1 79 L522.2 78.1 L520.3 77.2 L518.4 76.4 L516.5 75.7 L514.6 75 L512.6 74.4 L510.7 74 L508.8 73.5 L506.9 73.2 L505 72.9 L503.1 72.7 L501.2 72.5 L499.3 72.4 L497.3 72.4 L495.4 72.4 L493.5 72.4 L491.6 72.4 L489.7 72.4 L487.8 72.4 L485.9 72.4 L484 72.4 L482.1 72.4 L480.1 72.4 L478.2 72.4 L476.3 72.4 L474.4 72.4 L472.5 72.4 L470.6 72.4 L468.7 72.4 L466.8 72.4 L464.9 72.4 L462.9 72.4 L461 72.4 L459.1 72.4 L457.2 72.4 L455.3 72.4 L453.4 72.4 L451.5 72.4 L449.6 72.4 L447.6 72.4 L445.7 72.4 L443.8 72.4 L441.9 72.4 L440 72.4 L438.1 72.4 L436.2 72.4 L434.3 72.4 L432.4 72.4 L430.4 72.4 L428.5 72.4 L426.6 72.4 L424.7 72.4 L422.8 72.4 L420.9 72.4 L419 72.4 L417.1 72.4 L415.1 72.4 L413.2 72.4 L411.3 72.4 L409.4 72.4 L407.5 72.4 L405.6 72.4 L403.7 72.4 L401.8 72.4 L399.9 72.4 L397.9 72.4 L396 72.4 L394.1 72.4 L392.2 72.4 L390.3 72.4 L388.4 72.4 L386.5 72.4 L384.6 72.4 L382.7 72.4 L380.7 72.4 L378.8 72.5 L376.9 72.7 L375 72.9 L373.1 73.2 L371.2 73.5 L369.3 74 L367.4 74.4 L365.4 75 L363.5 75.7 L361.6 76.4 L359.7 77.2 L357.8 78.1 L355.9 79 L354 80.1 L352.1 81.2 L350.2 82.5 L348.2 83.9 L346.3 85.4 L344.4 87 L342.5 88.8 L340.6 90.8 L338.7 93 L336.8 95.4 L334.9 98.1 L333 101.2 L331 104.9 L329.1 109.3 L327.2 115.2 L325.3 129.3 L325.3 130.7 L327.2 144.8 L329.1 150.7 L331 155.1 L333 158.8 L334.9 161.9 L336.8 164.6 L338.7 167 L340.6 169.2 L342.5 171.2 L344.4 173 L346.3 174.6 L348.2 176.1 L350.2 177.5 L352.1 178.8 L354 179.9 L355.9 181 L357.8 181.9 L359.7 182.8 L361.6 183.6 L363.5 184.3 L365.4 185 L367.4 185.6 L369.3 186 L371.2 186.5 L373.1 186.8 L375 187.1 L376.9 187.3 L378.8 187.5 L380.7 187.6 L382.7 187.6 L384.6 187.6 L386.5 187.6 L388.4 187.6 L390.3 187.6 L392.2 187.6 L394.1 187.6 L396 187.6 L397.9 187.6 L399.9 187.6 L401.8 187.6 L403.7 187.6 L405.6 187.6 L407.5 187.6 L409.4 187.6 L411.3 187.6 L413.2 187.6 L415.1 187.6 L417.1 187.6 L419 187.6 L420.9 187.6 L422.8 187.6 L424.7 187.6 L426.6 187.6 L428.5 187.6 L430.4 187.6 L432.4 187.6 L434.3 187.6 L436.2 187.6 L438.1 187.6 L440 187.6 L441.9 187.6 L443.8 187.6 L445.7 187.6 L447.6 187.6 L449.6 187.6 L451.5 187.6 L453.4 187.6 L455.3 187.6 L457.2 187.6 L459.1 187.6 L461 187.6 L462.9 187.6 L464.9 187.6 L466.8 187.6 L468.7 187.6 L470.6 187.6 L472.5 187.6 L474.4 187.6 L476.3 187.6 L478.2 187.6 L480.1 187.6 L482.1 187.6 L484 187.6 L485.9 187.6 L487.8 187.6 L489.7 187.6 L491.6 187.6 L493.5 187.6 L495.4 187.6 L497.3 187.6 L499.3 187.6 L501.2 187.5 L503.1 187.3 L505 187.1 L506.9 186.8 L508.8 186.5 L510.7 186 L512.6 185.6 L514.6 185 L516.5 184.3 L518.4 183.6 L520.3 182.8 L522.2 181.9 L524.1 181 L526 179.9 L527.9 178.8 L529.8 177.5 L531.8 176.1 L533.7 174.6 L535.6 173 L537.5 171.2 L539.4 169.2 L541.3 167 L543.2 164.6 L545.1 161.9 L547 158.8 L549 155.1 L550.9 150.7 L552.8 144.8 L554.7 130.7 Z" fill="#111114" fill-opacity=".55" stroke="#c9c3b6" stroke-width="1.4"/><text x="14" y="248" fill="#74747f" font-size="10.5" font-family="ui-monospace,SFMono-Regular,Menlo,monospace">P-100 · 110 m × 55.3 m · 220 thousand m³ · conceptual reference vehicle</text></svg>